# xmcd
#
# Track frame offsets:
#	183
#	13745
#	25533
#	42115
#	59318
#	77060
#	88858
#	104863
#	124383
#	140970
#	155303
#	166785
#	179110
#	192433
#	206260
#	225648
#	247618
#	263988
#	276133
#	290015
#
# Disc length: 4049 seconds
#
# Revision: 1
# Processed by: cddbd v1.5.1PL0 Copyright (c) Steve Scherf et al.
# Submitted via: audiograbber 1.83.01
#
DISCID=200fcf14
DTITLE=Various Artist - Potlach v udoli
DYEAR=1996
DGENRE=Country
TTITLE0=Je na zapad cesta dlouha
TTITLE1=Jdem dal
TTITLE2=Guadalcanal
TTITLE3=Hochu, lasce verit nemuzes
TTITLE4=Vzpominka
TTITLE5=Tri reky
TTITLE6=Z Prahy az na Onen svet
TTITLE7=Az budes velky, stanes se namornikem
TTITLE8=Kanadska posta
TTITLE9=Hledam te dal
TTITLE10=Buraky
TTITLE11=Chlap se vraci
TTITLE12=Vsichni svorne
TTITLE13=Trampsky holky
TTITLE14=Udoli desu
TTITLE15=Jedina lasko ma
TTITLE16=Pisne toulavejch bot
TTITLE17=Aljaska
TTITLE18=Muj dlouhy stin
TTITLE19=Az skonci pristi tejden
EXTD=
EXTT0=
EXTT1=
EXTT2=
EXTT3=
EXTT4=
EXTT5=
EXTT6=
EXTT7=
EXTT8=
EXTT9=
EXTT10=
EXTT11=
EXTT12=
EXTT13=
EXTT14=
EXTT15=
EXTT16=
EXTT17=
EXTT18=
EXTT19=
PLAYORDER=
